<?xml version="1.0" standalone="no"?>
<!DOCTYPE svg PUBLIC "-//W3C//DTD SVG 20010904//EN"
 "http://www.w3.org/TR/2001/REC-SVG-20010904/DTD/svg10.dtd">
<svg version="1.0" xmlns="http://www.w3.org/2000/svg"
 width="706.000000pt" height="706.000000pt" viewBox="0 0 706.000000 706.000000"
 preserveAspectRatio="xMidYMid meet">
<metadata>
Created by potrace 1.11, written by Peter Selinger 2001-2013
</metadata>
<g transform="translate(0.000000,706.000000) scale(0.100000,-0.100000)"
fill="#000000" stroke="none">
<path d="M378 6115 c-2 -2 -18 -6 -35 -10 -18 -3 -42 -9 -55 -14 -13 -5 -27
-10 -33 -11 -56 -13 -147 -61 -181 -96 -103 -102 -63 -224 121 -369 28 -22 52
-42 55 -45 13 -13 78 -41 105 -46 17 -2 38 -7 47 -10 10 -3 30 -7 45 -10 16
-3 53 -11 83 -19 30 -8 67 -16 83 -19 15 -3 35 -7 45 -10 9 -3 33 -8 52 -10
19 -3 46 -8 60 -11 45 -11 274 -56 305 -60 33 -5 48 -7 207 -35 59 -11 133
-22 163 -25 31 -4 66 -8 78 -11 50 -10 120 -20 217 -30 30 -3 66 -7 80 -10 14
-2 50 -6 81 -9 63 -5 161 -13 229 -20 267 -28 615 -18 742 21 20 6 11 -12 -96
-195 -36 -62 -66 -116 -66 -119 0 -3 -6 -13 -14 -21 -8 -9 -26 -38 -41 -66
-14 -27 -40 -72 -56 -100 -16 -27 -32 -57 -36 -65 -3 -8 -11 -22 -18 -30 -7
-8 -26 -40 -43 -71 -16 -32 -37 -68 -45 -80 -18 -28 -46 -77 -119 -207 -40
-71 -56 -91 -67 -86 -50 22 -213 74 -251 81 -51 9 -285 9 -345 0 -22 -3 -60
-11 -85 -17 -25 -6 -49 -12 -55 -13 -5 -1 -16 -6 -22 -10 -7 -5 -13 -6 -13 -3
0 19 -327 -131 -371 -170 -8 -8 -19 -14 -23 -14 -19 0 -212 -158 -301 -246
-122 -121 -198 -211 -280 -334 -16 -25 -32 -47 -36 -50 -6 -6 -133 -232 -135
-240 0 -3 -12 -31 -27 -62 -15 -31 -27 -62 -27 -67 0 -6 -4 -11 -8 -11 -5 0
-9 -6 -10 -12 0 -7 -17 -60 -38 -118 -20 -58 -43 -130 -51 -160 -7 -30 -16
-64 -19 -75 -4 -18 -27 -141 -40 -217 -3 -23 -16 -205 -16 -233 1 -63 14 -250
18 -257 3 -5 8 -25 10 -46 13 -112 79 -308 139 -417 104 -187 250 -332 421
-418 64 -32 142 -61 192 -72 12 -3 32 -7 45 -10 83 -19 231 -25 315 -13 31 5
71 10 87 12 17 2 57 12 90 22 33 9 67 18 75 20 82 11 444 210 500 273 3 4 22
19 43 34 49 37 210 197 262 261 22 27 48 58 58 70 24 27 78 106 140 204 156
246 278 560 322 832 4 25 9 54 11 65 9 46 16 168 16 280 0 156 -10 259 -34
350 -5 22 -12 49 -14 60 -5 25 -40 133 -55 170 -7 17 -13 32 -14 35 0 3 -12
25 -25 50 -13 25 -24 47 -25 50 -2 24 -116 172 -186 241 l-88 87 40 67 c21 37
39 71 39 76 0 5 5 9 10 9 6 0 10 4 10 9 0 9 53 106 88 161 9 14 15 28 14 33
-1 4 2 7 8 7 5 0 10 4 10 9 0 5 70 129 156 277 86 148 181 312 211 366 l55 96
52 -36 c60 -43 137 -99 151 -110 6 -5 44 -33 85 -62 41 -30 77 -57 80 -60 3
-3 13 -9 22 -15 9 -5 55 -38 101 -72 l85 -61 26 29 c14 16 26 33 26 39 0 5 4
10 8 10 9 0 36 50 30 55 -2 1 -77 56 -168 121 -91 65 -170 123 -177 129 -6 5
-61 45 -122 89 -61 43 -111 82 -111 87 0 10 21 50 31 59 3 3 13 21 22 40 10
19 23 44 30 55 20 32 52 87 79 135 14 25 39 68 56 97 l31 52 -37 22 c-20 12
-52 30 -69 40 l-32 18 -42 -72 c-23 -40 -61 -105 -85 -145 -24 -40 -44 -75
-44 -78 0 -3 -16 -30 -35 -60 -19 -30 -35 -58 -35 -63 0 -5 -6 -16 -13 -23 -6
-7 -21 -30 -32 -50 l-20 -38 -21 23 c-54 56 -171 121 -344 191 -36 15 -74 31
-85 35 -75 31 -133 51 -146 51 -8 0 -19 4 -25 8 -5 5 -45 19 -89 31 -44 13
-89 27 -100 32 -20 8 -224 68 -257 75 -10 2 -26 6 -36 8 -9 2 -37 9 -62 16
-25 7 -49 13 -55 15 -5 1 -17 5 -25 8 -8 3 -78 20 -155 37 -77 18 -164 39
-194 46 -30 8 -57 12 -59 9 -3 -2 -12 0 -21 4 -9 5 -34 12 -56 16 -22 4 -49 9
-60 10 -11 2 -31 7 -45 10 -36 8 -121 26 -145 30 -11 2 -31 6 -45 9 -13 3 -42
8 -65 11 -22 3 -47 8 -55 10 -23 6 -77 16 -165 29 -40 6 -66 11 -115 21 -34 7
-147 15 -152 10z"/>
<path d="M4648 5355 c-2 -2 -41 -5 -88 -8 -47 -4 -129 -17 -182 -31 -100 -25
-280 -97 -309 -122 -8 -8 -19 -14 -23 -14 -19 0 -172 -117 -238 -183 -98 -96
-147 -157 -211 -263 -97 -160 -170 -341 -203 -504 -2 -14 -7 -32 -9 -40 -7
-24 -18 -93 -19 -117 -1 -13 -3 -23 -6 -23 -3 0 -5 -10 -6 -22 0 -13 -4 -59
-8 -103 -8 -90 -9 -313 -1 -389 3 -28 7 -71 10 -96 9 -104 55 -347 79 -423 14
-46 38 -126 42 -142 5 -24 68 -194 85 -232 10 -23 19 -44 19 -48 0 -3 30 -66
66 -141 71 -145 124 -223 203 -303 58 -58 228 -189 307 -236 28 -17 104 -65
228 -145 77 -50 126 -86 126 -92 0 -5 6 -8 13 -8 6 0 35 -21 62 -46 142 -128
154 -139 319 -268 286 -224 559 -360 796 -397 100 -15 266 -6 360 20 89 25 87
24 125 41 17 7 32 14 35 15 38 13 86 41 190 109 67 45 211 178 281 262 63 75
156 240 222 394 13 31 56 167 61 195 1 6 5 19 9 30 3 11 9 34 12 50 2 17 9 55
15 85 18 101 19 115 26 195 8 99 8 287 0 380 -3 39 -8 93 -10 122 -2 28 -6 55
-8 60 -3 4 -5 19 -6 33 -1 14 -9 59 -17 100 -9 41 -18 89 -21 105 -13 73 -90
318 -136 435 -57 143 -138 316 -170 363 -11 15 -16 27 -12 27 4 0 0 8 -8 18
-8 9 -30 44 -48 77 -71 126 -242 360 -353 482 -130 142 -238 243 -367 343 -25
19 -47 38 -50 41 -23 26 -247 161 -349 210 -69 34 -138 67 -153 75 -14 8 -31
14 -38 14 -7 0 -26 6 -43 14 -83 36 -252 75 -392 91 -58 7 -203 14 -207 10z"/>
</g>
</svg>
